<svg xmlns="http://www.w3.org/2000/svg" viewBox="0 0 512 512" xml:space="preserve">
  <path d="M228 96.677c16.476.362 32.453-.518 48.437.913 46.926 4.2 83.941 32.033 91.988 82.142 3.308 20.597 2.177 40.789-4.72 60.53-12.173 34.84-37.548 54.318-72.83 61.943-10.914 2.358-22.032 3.213-33.23 3.141-18.497-.118-36.995-.023-55.492-.024-8.799 0-8.804-.005-8.805 9.038-.002 32.33.005 64.658-.004 96.988-.002 6.589-.025 6.601-6.732 6.613-12.165.02-24.332-.098-36.494.101-4.438.073-6.178-1.338-6.173-6.014.098-102.987.1-205.974-.014-308.961-.005-5.007 1.509-6.566 6.58-6.52 25.661.237 51.326.11 77.49.11m81.293 143.112c6.392-9.45 9.684-19.918 10.78-31.243 1.588-16.433-1.128-31.885-10.305-45.766-11.69-17.68-29.858-22.637-49.423-23.294-20.468-.687-40.977-.103-61.467-.26-4-.03-5.615 1.086-5.6 5.359.127 37.816.108 75.633.018 113.45-.008 3.62 1.137 5.07 4.867 5.036 22.654-.211 45.339.393 67.954-.603 17.214-.758 32.472-7.066 43.176-22.679"/>
</svg>
